# xmcd
# 
# Track frame offsets:
#     150
#     13627
#     27912
#     37490
#     47387
#     58634
#     68595
#     77112
#     90489
#     104058
#     118105
#     130631
#     144358
#     157352
#     171603
#     185084
#     199037
#     212707
#     225788
#     239506
#     253054
#     265783
#     280099
#     294027
#     307291
# 
# Disc length: 4272
# 
# Revision: 1
# Processed by: cddbd v1.5.2PL0 Copyright (c) Steve Scherf et al.
# Submitted via: fre:ac v1.0.17
# 
DISCID=7010ae19
DTITLE=John Steinbeck - The Grapes of Wrath [CD12)
DYEAR=1939
DGENRE=Audiobook
TTITLE0=Chapter 20.37
TTITLE1=Chapter 20.38
TTITLE2=Chapter 20.39
TTITLE3=Chapter 20.40
TTITLE4=Chapter 21.01
TTITLE5=Chapter 21.02
TTITLE6=Chapter 22.03
TTITLE7=Chapter 22.01
TTITLE8=Chapter 22.02
TTITLE9=Chapter 22.03
TTITLE10=Chapter 22.04
TTITLE11=Chapter 22.05
TTITLE12=Chapter 22.06
TTITLE13=Chapter 22.07
TTITLE14=Chapter 22.08
TTITLE15=Chapter 22.09
TTITLE16=Chapter 22.10
TTITLE17=Chapter 22.11
TTITLE18=Chapter 22.12
TTITLE19=Chapter 22.13
TTITLE20=Chapter 22.14
TTITLE21=Chapter 22.15
TTITLE22=Chapter 22.16
TTITLE23=Chapter 22.17
TTITLE24=Chapter 22.18
EXTD=The Grapes of Wrath by John Steinbeck\nread by Dylan Baker recorded books 18 CDs\nnational folk country
EXTT0=
EXTT1=
EXTT2=
EXTT3=
EXTT4=
EXTT5=
EXTT6=
EXTT7=
EXTT8=
EXTT9=
EXTT10=
EXTT11=
EXTT12=
EXTT13=
EXTT14=
EXTT15=
EXTT16=
EXTT17=
EXTT18=
EXTT19=
EXTT20=
EXTT21=
EXTT22=
EXTT23=
EXTT24=
PLAYORDER=
